# AST/ASF file generated using VICON BodyLanguage
# -----------------------------------------------
:version 1.10
:name VICON
:units
  mass 1.0
  length 0.45
  angle deg
:documentation
   .ast/.asf automatically generated from VICON data using
   VICON BodyBuilder and BodyLanguage model FoxedUp or BRILLIANT.MOD
:root
   order TX TY TZ RX RY RZ
   axis XYZ
   position 0 0 0  
   orientation 0 0 0 
:bonedata
  begin
     id 1 
     name lhipjoint
     direction 0.611804 -0.747784 0.257906 
     length 2.29243 
     axis 0 0 0  XYZ
  end
  begin
     id 2 
     name lfemur
     direction 0.34202 -0.939693 0  
     length 7.31159  
     axis 0 0 20  XYZ
    dof rx ry rz
    limits (-160.0 20.0)
           (-70.0 70.0)
           (-60.0 70.0)
  end
  begin
     id 3 
     name ltibia
     direction 0.34202 -0.939693 0   
     length 7.33391   
     axis 0 0 20   XYZ
    dof rx
    limits (-10.0 170.0)
  end
  begin
     id 4 
     name lfoot
     direction 0.122263 -0.335914 0.933924   
     length 1.76083   
     axis -90 7.62852e-016 20   XYZ
    dof rx rz
    limits (-45.0 90.0)
           (-70.0 20.0)
  end
  begin
     id 5 
     name ltoes
     direction 1.53533e-011 -4.2177e-011 1   
     length 0.879206   
     axis -90 7.62852e-016 20   XYZ
    dof rx
    limits (-90.0 20.0)
  end
  begin
     id 6 
     name rhipjoint
     direction -0.646469 -0.721248 0.248754   
     length 2.37677  
     axis 0 0 0  XYZ 
  end
  begin
     id 7 
     name rfemur
     direction -0.34202 -0.939693 0   
     length 7.18623   
     axis 0 0 -20   XYZ
    dof rx ry rz
    limits (-160.0 20.0)
           (-70.0 70.0)
           (-70.0 60.0)
  end
  begin
     id 8 
     name rtibia
     direction -0.34202 -0.939693 0   
     length 7.36567   
     axis 0 0 -20   XYZ
    dof rx
    limits (-10.0 170.0)
 end
 begin
     id 9 
     name rfoot
     direction -0.126681 -0.348054 0.928876   
     length 1.71902  
     axis -90 -7.62852e-016 -20   XYZ
    dof rx rz
    limits (-45.0 90.0)
           (-20.0 70.0)
  end
  begin
     id 10 
     name rtoes
     direction -1.53551e-011 -4.21898e-011 1   
     length 0.857792   
     axis -90 -7.62852e-016 -20   XYZ
    dof rx
    limits (-90.0 20.0)
  end
  begin
     id 11 
     name lowerback
     direction 0.0106509 0.999778 0.0181844   
     length 2.07668   
     axis 0 0 0   XYZ
    dof rx ry rz
    limits (-20.0 45.0)
           (-30.0 30.0)
           (-30.0 30.0)
  end
  begin
     id 12 
     name upperback
     direction -0.00456018 0.999989 -0.000590935   
     length 2.08011   
     axis 0 0 0   XYZ
    dof rx ry rz
    limits (-20.0 45.0)
           (-30.0 30.0)
           (-30.0 30.0)
  end
  begin
     id 13 
     name thorax
     direction -0.00910382 0.999916 -0.00923765   
     length 2.07397   
     axis 0 0 0   XYZ
    dof rx ry rz
    limits (-20.0 45.0)
           (-30.0 30.0)
           (-30.0 30.0)
  end
  begin
     id 14 
     name lowerneck
     direction 0.00171967 0.99778 0.0665733   
     length 1.67556   
     axis 0 0 0   XYZ
    dof rx ry rz
    limits (-20.0 45.0)
           (-30.0 30.0)
           (-30.0 30.0)
  end
  begin
     id 15 
     name upperneck
     direction -0.0143166 0.991302 -0.130828   
     length 1.68462   
     axis 0 0 0   XYZ
    dof rx ry rz
    limits (-20.0 45.0)
           (-30.0 30.0)
           (-30.0 30.0)
  end
  begin
     id 16
     name head
     direction -0.00606378 0.998665 -0.0512995  
     length 1.69269  
     axis 0 0 0   XYZ
    dof rx ry rz
    limits (-20.0 45.0)
           (-30.0 30.0)
           (-30.0 30.0)
  end
  begin
     id 17 
     name lclavicle
     direction 0.9638 0.179341 0.197297  
     length 4.12888  
     axis 0 0 0   XYZ
    dof ry rz
    limits (-20.0 10.0)
           (0.0 20.0)
  end
  begin
     id 18 
     name lhumerus
     direction 1 -4.48972e-011 -2.47351e-027   
     length 5.01834   
     axis -180 -30 -90   XYZ
    dof rx ry rz
    limits (-60.0 90.0)
           (-90.0 90.0)
           (-90.0 90.0)
  end
  begin
     id 19
     name lradius
     direction 1 -4.48965e-011 1.51591e-026   
     length 3.4869   
     axis -180 -30 -90   XYZ
    dof rx
    limits (-10.0 170.0)
  end
  begin
     id 20
     name lwrist
     direction 1 -4.48957e-011 2.70032e-026   
     length 1.74345   
     axis -1.81515e-014 90 90   XYZ
    dof ry
    limits (-180.0 0.0)
 end
  begin
     id 21 
     name lhand
     direction 1 -4.48951e-011 5.40064e-026   
     length 0.76799   
     axis -3.44607e-014 90 90   XYZ
    dof rx rz
    limits (-90.0 90.0)
           (-45.0 45.0)
  end
  begin
     id 22 
     name lfingers
     direction 1 -4.48971e-011 1.08013e-025   
     length 0.619174   
     axis -6.89214e-014 90 90   XYZ
    dof rx
    limits (0.0 90.0)
  end
  begin
     id 23
     name lthumb
     direction 0.707107 -6.34931e-011 0.707107   
     length 0.889013   
     axis -90 45 2.85299e-015   XYZ
    dof rx rz
    limits (-45.0 45.0)
           (-45.0 45.0)
  end
  begin
     id 24 
     name rclavicle
     direction -0.961409 0.252588 0.109054   
     length 4.04305  
     axis 0 0 0   XYZ 
    dof ry rz
    limits (-10.0 20.0)
           (-20.0 0.0)
  end
  begin
     id 25 
     name rhumerus
     direction -1 -4.4897e-011 1.33872e-017  
     length 4.70164   
     axis -180 30 90   XYZ
    dof rx ry rz
    limits (-90.0 60.0)
           (-90.0 90.0)
           (-90.0 90.0)
  end
  begin
     id 26 
     name rradius
     direction -1 -4.48954e-011 1.83844e-026   
     length 3.49911   
     axis -180 30 90   XYZ
    dof rx
    limits (-10.0 170.0)
  end
  begin
     id 27 
     name rwrist
     direction -1 -4.49008e-011 2.70032e-026   
     length 1.74955   
     axis -1.81515e-014 -90 -90   XYZ
    dof ry
    limits (-180.0 0.0)
  end
  begin
     id 28
     name rhand
     direction -1 -4.48916e-011 5.40064e-026   
     length 0.739335   
     axis -3.44607e-014 -90 -90   XYZ
    dof rx rz
    limits (-90.0 90.0)
           (-45.0 45.0)
  end
  begin
     id 29
     name rfingers
     direction -1 -4.48987e-011 1.08013e-025   
     length 0.596071   
     axis -6.89214e-014 -90 -90   XYZ
    dof rx
    limits (0.0 90.0)
  end
  begin
     id 30
     name rthumb
     direction -0.707107 -6.34935e-011 0.707107   
     length 0.855843   
     axis -90 -45 -2.85299e-015   XYZ
    dof rx rz
    limits (-45.0 45.0)
           (-45.0 45.0)
  end
:hierarchy
  begin
    root lhipjoint rhipjoint lowerback
    lhipjoint lfemur
    lfemur ltibia
    ltibia lfoot
    lfoot ltoes
    rhipjoint rfemur
    rfemur rtibia
    rtibia rfoot
    rfoot rtoes
    lowerback upperback
    upperback thorax
    thorax lowerneck lclavicle rclavicle
    lowerneck upperneck
    upperneck head
    lclavicle lhumerus
    lhumerus lradius
    lradius lwrist
    lwrist lhand lthumb
    lhand lfingers
    rclavicle rhumerus
    rhumerus rradius
    rradius rwrist
    rwrist rhand rthumb
    rhand rfingers
  end

#!OML:ASF I:\salsa\salsa 7_09\Patient 1\Session 1\dancermale.ASF
:FULLY-SPECIFIED
:DEGREES
634
root 1.02265 17.4067 -7.29583 370.478 -11.4391 718.565
lowerback -5.31316 3.28237 1.40188
upperback -3.2055 4.309 -0.686808
thorax -0.168911 2.13186 -1.26499
lowerneck -7.29172 -1.72493 -1.66602
upperneck 31.7782 -3.10946 2.88818
head 11.6118 -1.27542 0.992791
rclavicle 1.35577e-014 -1.25234e-014
rhumerus -47.0117 -23.7085 -61.3095
rradius 91.7262
rwrist -39.9345
rhand -13.8689 1.17029
rfingers 7.12502
rthumb 12.2555 -28.4506
lclavicle 1.35577e-014 -1.25234e-014
lhumerus 75.6289 22.2825 49.9551
lradius 145.802
lwrist 102.378
lhand 23.9913 49.9699
lfingers 7.12502
lthumb 48.2335 432.073
rfemur -22.3901 0.261682 19.6984
rtibia 12.9803
rfoot -9.37664 -16.708
rtoes 12.5991
lfemur -4.538 4.93857 -15.93
ltibia 29.0586
lfoot -13.8664 9.57405
ltoes -13.8072
635
root 1.15467 17.4049 -7.49923 370.572 -9.51974 718.838
lowerback -5.401 3.30022 1.42871
upperback -3.15564 4.33147 -0.670049
thorax -0.0675207 2.14453 -1.25409
lowerneck -7.34893 -2.19098 -2.12255
upperneck 31.5796 -3.68234 2.93811
head 11.5725 -1.57413 1.02241
rclavicle 1.50082e-014 4.77083e-015
rhumerus -45.9301 -24.5323 -60.8259
rradius 90.8136
rwrist -38.9969
rhand -12.1684 1.03408
rfingers 7.12502
rthumb 13.8947 -28.4817
lclavicle 1.50082e-014 4.77083e-015
lhumerus 73.1969 21.5793 51.4499
lradius 145.716
lwrist 102.313
lhand 23.9304 49.8883
lfingers 7.12502
lthumb 48.1773 432.018
rfemur -24.0448 0.081057 18.8097
rtibia 14.7744
rfoot -10.3607 -17.6333
rtoes 14.8006
lfemur -3.93206 2.39953 -16.3624
ltibia 25.7997
lfoot -15.4551 9.60242
ltoes -17.6679
636
root 1.27968 17.4016 -7.71035 370.523 -7.73201 719.54
lowerback -5.32471 3.14984 0.644257
upperback -3.07065 4.16731 -0.482499
thorax -0.0963904 2.07377 -0.638744
lowerneck -7.39827 -2.5028 -2.942
upperneck 31.3667 -3.98659 3.06683
head 11.5306 -1.78514 1.17624
rclavicle -9.69464e-016 -2.60905e-015
rhumerus -44.5165 -25.0591 -60.4387
rradius 90.113
rwrist -38.3775
rhand -10.9361 0.48382
rfingers 7.12502
rthumb 15.082 -28.9467
lclavicle -9.69464e-016 -2.60905e-015
lhumerus 70.1319 21.3312 52.8671
lradius 145.636
lwrist 102.374
lhand 22.9814 49.4399
lfingers 7.12502
lthumb 47.3016 431.972
rfemur -25.9607 -0.113262 17.445
rtibia 17.1714
rfoot -11.5281 -17.6626
rtoes 16.0459
lfemur -3.89496 1.40944 -17.0914
ltibia 23.7573
lfoot -17.0807 8.96274
ltoes -17.3274
637
root 1.40193 17.3902 -7.89236 370.106 -6.71252 720.812
lowerback -5.01889 3.26618 -0.586893
upperback -3.01088 4.37634 -0.606694
thorax -0.283332 2.19275 -0.0903879
lowerneck -7.29057 -2.80832 -3.7574
upperneck 31.2895 -4.33993 3.35682
head 11.5212 -1.99943 1.38559
rclavicle -1.32689e-014 6.06293e-015
rhumerus -43.5246 -25.3321 -60.5228
rradius 89.9343
rwrist -40.5572
rhand -12.6174 1.06969
rfingers 7.12502
rthumb 13.462 -28.4753
lclavicle -1.32689e-014 6.06293e-015
lhumerus 66.7598 20.9303 54.1592
lradius 145.582
lwrist 102.868
lhand 21.4728 48.6266
lfingers 7.12502
lthumb 45.9045 431.761
rfemur -27.5897 -0.549293 15.5278
rtibia 19.7349
rfoot -12.4253 -15.7756
rtoes 16.27
lfemur -3.14124 1.37233 -18.691
ltibia 21.4801
lfoot -18.4695 8.41356
ltoes -17.1891
638
root 1.49357 17.3984 -8.12677 370.677 -5.16408 720.612
lowerback -4.85046 3.3459 -0.362176
upperback -3.30978 4.47213 -0.511978
thorax -0.674939 2.24016 -0.136686
lowerneck -7.22049 -3.15178 -4.14569
upperneck 31.1662 -4.78513 3.49786
head 11.4945 -2.22356 1.45283
rclavicle -2.46213e-014 -9.93923e-015
rhumerus -42.7168 -25.8483 -60.6437
rradius 89.6521
rwrist -40.798
rhand -12.6523 1.09514
rfingers 7.12502
rthumb 13.4284 -28.452
lclavicle -2.46213e-014 -9.93923e-015
lhumerus 63.4341 20.4669 55.2703
lradius 145.401
lwrist 103.385
lhand 20.8854 48.1723
lfingers 7.12502
lthumb 45.359 431.529
rfemur -30.4264 -0.100713 15.3479
rtibia 22.6115
rfoot -11.8336 -13.6304
rtoes 13.0133
lfemur -4.12855 1.78454 -18.1608
ltibia 20.1537
lfoot -19.4618 7.47629
ltoes -16.6813
639
root 1.57704 17.3884 -8.33169 370.696 -3.9642 720.963
lowerback -4.7794 3.4962 -0.388989
upperback -3.15477 4.67509 -0.798689
thorax -0.533297 2.33977 -0.403772
lowerneck -7.32357 -3.48725 -3.86923
upperneck 30.7473 -5.24649 3.35921
head 11.3602 -2.41203 1.29459
rclavicle -3.78716e-014 -6.36111e-015
rhumerus -41.4717 -26.5748 -61.4023
rradius 89.2676
rwrist -40.8881
rhand -13.2176 1.05394
rfingers 7.12502
rthumb 12.8834 -28.5284
lclavicle -3.78716e-014 -6.36111e-015
lhumerus 60.4284 19.9603 56.1585
lradius 145.055
lwrist 103.666
lhand 21.0634 48.4205
lfingers 7.12502
lthumb 45.5243 431.711
rfemur -32.4483 0.571679 14.4542
rtibia 25.2006
rfoot -11.7436 -10.6169
rtoes 12.7194
lfemur -4.11892 2.41837 -18.4166
ltibia 18.3563
lfoot -20.0545 6.57041
ltoes -16.192
640
root 1.65406 17.3682 -8.51674 370.459 -2.86 721.519
lowerback -4.59487 3.66173 -0.451351
upperback -2.91441 4.90025 -1.23019
thorax -0.355331 2.45012 -0.801535
lowerneck -7.37271 -3.77259 -3.45329
upperneck 30.2718 -5.66571 3.2348
head 11.1855 -2.56766 1.12512
rclavicle -1.2744e-014 -8.94531e-016
rhumerus -39.7523 -27.8392 -62.4448
rradius 88.4821
rwrist -40.3721
rhand -13.6511 0.845603
rfingers 7.12502
rthumb 12.4655 -28.7626
lclavicle -1.2744e-014 -8.94531e-016
lhumerus 57.2753 19.2804 56.8228
lradius 144.595
lwrist 103.754
lhand 20.9248 48.6806
lfingers 7.12502
lthumb 45.3956 432.023
rfemur -33.9159 1.43718 13.4928
rtibia 27.4587
rfoot -11.317 -8.11018
rtoes 8.72302
lfemur -3.70926 2.79745 -19.0421
ltibia 16.555
lfoot -20.4473 5.83103
ltoes -15.5684
641
root 1.71864 17.349 -8.70305 370.256 -1.39158 721.774
lowerback -4.19537 3.75986 -0.206991
upperback -2.80476 5.022 -1.5657
thorax -0.412548 2.50636 -1.29647
lowerneck -7.39084 -4.12039 -3.30893
upperneck 29.943 -6.21886 3.41562
head 11.087 -2.78017 1.09982
rclavicle 7.54489e-015 -1.68532e-014
rhumerus -38.7729 -28.4298 -63.3851
rradius 88.0585
rwrist -40.2105
rhand -14.4827 0.70753
rfingers 7.12502
rthumb 11.6637 -28.9478
lclavicle 7.54489e-015 -1.68532e-014
lhumerus 53.6312 18.216 57.2723
lradius 144.152
lwrist 103.734
lhand 20.1961 48.442
lfingers 7.12502
lthumb 44.7177 432.052
rfemur -34.977 2.7361 12.8568
rtibia 28.9565
rfoot -10.7357 -6.55391
rtoes 5.00067
lfemur -3.74197 2.53956 -19.3479
ltibia 15.4471
lfoot -20.7476 5.4234
ltoes -15.3805
642
root 1.77486 17.3321 -8.87922 370.059 0.159646 721.777
lowerback -3.847 3.93541 0.282192
upperback -2.66347 5.24207 -1.87461
thorax -0.384369 2.61007 -1.89113
lowerneck -7.66631 -4.60416 -3.02255
upperneck 29.8072 -6.99734 3.59632
head 11.1196 -3.07344 1.01649
rclavicle -3.44053e-014 6.36111e-015
rhumerus -37.9188 -29.3589 -64.1731
rradius 87.6172
rwrist -39.9387
rhand -15.137 0.593402
rfingers 7.12502
rthumb 11.0326 -29.0967
lclavicle -3.44053e-014 6.36111e-015
lhumerus 49.7259 16.5188 57.5766
lradius 143.754
lwrist 103.776
lhand 19.2526 48.105
lfingers 7.12502
lthumb 43.8382 432.048
rfemur -35.4154 4.24845 12.5575
rtibia 29.2997
rfoot -10.2282 -5.55148
rtoes 3.67516
lfemur -3.98502 1.92854 -19.4274
ltibia 14.7884
lfoot -20.9375 5.30506
ltoes -15.6482
643
root 1.82231 17.3125 -9.03403 369.582 1.77571 721.979
lowerback -3.43812 3.98365 0.488371
upperback -2.44465 5.30279 -2.08562
thorax -0.346729 2.6388 -2.23823
lowerneck -7.53081 -4.73319 -3.00851
upperneck 29.4039 -7.17757 3.68849
head 10.9485 -3.14654 1.03065
rclavicle -3.0237e-014 1.32192e-014
rhumerus -37.0382 -29.8855 -65.0596
rradius 87.301
rwrist -40.1114
rhand -16.4227 0.910132
rfingers 7.12502
rthumb 9.79232 -28.8422
lclavicle -3.0237e-014 1.32192e-014
lhumerus 45.2149 14.5443 57.7212
lradius 143.276
lwrist 103.75
lhand 18.4736 48.0753
lfingers 7.12502
lthumb 43.1106 432.282
rfemur -34.7803 5.7699 12.1798
rtibia 28.3987
rfoot -10.0437 -5.27657
rtoes 2.88474
lfemur -4.37628 1.27606 -19.7593
ltibia 15.1969
lfoot -21.485 5.05638
ltoes -15.4527
644
root 1.85703 17.3007 -9.18095 369.148 3.30844 722.017
lowerback -3.10699 4.0891 0.677859
upperback -2.20158 5.44165 -2.19855
thorax -0.247314 2.70849 -2.46664
lowerneck -7.4348 -5.0183 -3.00895
upperneck 28.961 -7.59883 3.856
head 10.7866 -3.32371 1.04465
rclavicle 2.05742e-014 4.67144e-015
rhumerus -36.0387 -30.6096 -65.9808
rradius 87.0679
rwrist -39.8981
rhand -17.8273 0.838089
rfingers 7.12502
rthumb 8.43699 -28.9734
lclavicle 2.05742e-014 4.67144e-015
lhumerus 40.543 12.1419 58.0109
lradius 142.626
lwrist 103.238
lhand 18.0204 47.5194
lfingers 7.12502
lthumb 42.6867 431.875
rfemur -33.7879 7.33915 12.2442
rtibia 26.937
rfoot -10.1464 -5.96256
rtoes 0.216354
lfemur -4.94649 0.676962 -19.8192
ltibia 15.9148
lfoot -22.0092 4.47355
ltoes -14.6405
645
root 1.8755 17.2956 -9.31806 368.91 4.68985 722.126
lowerback -2.9599 4.14701 0.525968
upperback -2.05622 5.52402 -2.19963
thorax -0.190113 2.75241 -2.38563
lowerneck -7.35749 -5.30381 -3.17083
upperneck 28.7179 -7.99282 3.99282
head 10.7108 -3.50656 1.07735
rclavicle -4.59379e-014 4.40308e-014
rhumerus -35.477 -30.1634 -66.6768
rradius 86.8417
rwrist -40.1405
rhand -19.7419 0.877578
rfingers 7.12502
rthumb 6.58895 -28.9999
lclavicle -4.59379e-014 4.40308e-014
lhumerus 35.3626 9.45988 58.3095
lradius 141.864
lwrist 102.092
lhand 17.1857 48.9344
lfingers 7.12502
lthumb 41.9049 433.556
rfemur -33.0566 8.40781 12.6253
rtibia 25.9449
rfoot -10.6727 -7.06374
rtoes -4.32618
lfemur -5.81326 -0.059631 -19.8962
ltibia 16.8647
lfoot -22.4801 3.76432
ltoes -14.2734
646
root 1.87763 17.2931 -9.44201 368.945 5.88472 722.465
lowerback -3.04307 4.16997 -0.166547
upperback -2.05534 5.57093 -2.12877
thorax -0.213146 2.78149 -1.92434
lowerneck -7.27832 -5.55374 -3.46464
upperneck 28.754 -8.30324 4.04433
head 10.74 -3.66962 1.11093
rclavicle 6.54747e-015 3.926e-015
rhumerus -34.7354 -30.0994 -67.4358
rradius 86.6078
rwrist -39.0881
rhand -21.7766 0.923776
rfingers 7.12502
rthumb 4.6245 -29.0057
lclavicle 6.54747e-015 3.926e-015
lhumerus 29.6984 6.3326 58.6998
lradius 140.998
lwrist 100.299
lhand 15.8319 48.8898
lfingers 7.12502
lthumb 40.6341 433.921
rfemur -33.1393 8.45701 13.2378
rtibia 26.4954
rfoot -11.5786 -7.91422
rtoes -5.21677
lfemur -6.96082 -0.514808 -20.1366
ltibia 17.9249
lfoot -22.8605 2.82944
ltoes -14.8158
647
root 1.87059 17.2938 -9.55755 369.074 6.89131 722.836
lowerback -2.99134 4.22658 -1.18075
upperback -2.19405 5.66521 -1.912
thorax -0.501116 2.83821 -1.15644
lowerneck -7.29987 -5.62276 -3.85863
upperneck 28.9453 -8.28885 3.91285
head 10.8291 -3.71017 1.13129
rclavicle -9.00273e-014 3.31722e-015
rhumerus -34.299 -30.033 -67.7839
rradius 86.4226
rwrist -38.4241
rhand -23.2928 0.991829
rfingers 7.12502
rthumb 3.1603 -28.9645
lclavicle -9.00273e-014 3.31722e-015
lhumerus 23.7109 2.62481 59.6323
lradius 139.896
lwrist 97.7293
lhand 14.6687 48.6954
lfingers 7.12502
lthumb 39.5397 434.059
rfemur -33.8189 7.7622 14.1981
rtibia 28.2998
rfoot -11.9485 -8.17715
rtoes -6.19802
lfemur -8.22587 -0.607146 -20.3617
ltibia 19.1039
lfoot -23.2034 1.72751
ltoes -15.4909
648
root 1.85804 17.2966 -9.67024 369.184 7.70045 723.123
lowerback -3.41689 4.32041 -0.959389
upperback -1.87249 5.80507 -2.47733
thorax 0.147837 2.90436 -1.7959
lowerneck -7.76191 -5.60079 -3.67368
upperneck 28.8354 -8.40818 4.40405
head 10.9 -3.68018 1.24819
rclavicle 9.19379e-014 -3.37934e-014
rhumerus -32.967 -31.0291 -69.7576
rradius 86.1275
rwrist -37.6267
rhand -24.8439 1.0254
rfingers 7.12502
rthumb 1.6623 -28.9479
lclavicle 9.19379e-014 -3.37934e-014
lhumerus 18.8217 -1.19166 59.9281
lradius 138.308
lwrist 94.8536
lhand 13.4544 48.0148
lfingers 7.12502
lthumb 38.3948 433.706
rfemur -34.7382 7.10665 15.2425
rtibia 31.37
rfoot -12.6207 -8.01374
rtoes -1.0634
lfemur -9.49612 -0.467159 -20.5031
ltibia 20.385
lfoot -23.536 0.662693
ltoes -15.9523
